<svg width="215" height="29" viewBox="0 0 215 29" fill="none" xmlns="http://www.w3.org/2000/svg">
<path d="M1 3.73284C1 2.73875 1.82606 1.93311 2.84528 1.93311H24.2819C25.3011 1.93311 26.1272 2.73875 26.1272 3.73284V25.2606C26.1272 26.2547 25.3011 27.0603 24.2819 27.0603H2.84528C1.82606 27.0603 1 26.2547 1 25.2606V3.73284ZM8.76273 22.9677V11.6212H4.99208V22.9677H8.76273ZM6.87819 10.0712C8.19266 10.0712 9.01086 9.20115 9.01086 8.11126C8.98731 6.99781 8.19423 6.15133 6.90332 6.15133C5.61241 6.15133 4.76908 6.99938 4.76908 8.11126C4.76908 9.20115 5.58728 10.0712 6.85307 10.0712H6.87819ZM14.586 22.9677V16.6309C14.586 16.2917 14.6111 15.9525 14.7116 15.7107C14.9833 15.0338 15.6036 14.3318 16.6464 14.3318C18.0111 14.3318 18.5561 15.3714 18.5561 16.8979V22.9677H22.3267V16.4598C22.3267 12.9734 20.4673 11.3527 17.986 11.3527C15.9852 11.3527 15.0885 12.452 14.586 13.2262V13.2655H14.5608C14.5692 13.2524 14.5776 13.2393 14.586 13.2262V11.6212H10.8169C10.864 12.686 10.8169 22.9677 10.8169 22.9677H14.586Z" fill="#EFEFEF"/>
<path d="M75.0861 1.85742C67.9263 1.85742 62.1272 7.65653 62.1272 14.8163C62.1272 20.5506 65.8367 25.394 70.9878 27.1111C71.6358 27.2245 71.8788 26.8357 71.8788 26.4955C71.8788 26.1877 71.8626 25.1672 71.8626 24.0819C68.6066 24.6813 67.7643 23.2882 67.5051 22.5593C67.3593 22.1867 66.7276 21.0366 66.1769 20.7288C65.7233 20.4858 65.0753 19.8865 66.1607 19.8703C67.1812 19.8541 67.9101 20.8098 68.1531 21.1986C69.3194 23.1586 71.1822 22.6078 71.9274 22.2677C72.0407 21.4254 72.3809 20.8584 72.7535 20.5344C69.8701 20.2105 66.8572 19.0927 66.8572 14.136C66.8572 12.7267 67.3593 11.5604 68.1855 10.6533C68.0559 10.3293 67.6023 9.00101 68.3151 7.21916C68.3151 7.21916 69.4004 6.87899 71.8788 8.54745C72.9155 8.25588 74.017 8.11009 75.1185 8.11009C76.22 8.11009 77.3215 8.25588 78.3582 8.54745C80.8366 6.86279 81.9219 7.21916 81.9219 7.21916C82.6346 9.00101 82.1811 10.3293 82.0515 10.6533C82.8776 11.5604 83.3798 12.7105 83.3798 14.136C83.3798 19.1089 80.3506 20.2105 77.4673 20.5344C77.937 20.9394 78.342 21.7169 78.342 22.9318C78.342 24.6651 78.3258 26.0582 78.3258 26.4955C78.3258 26.8357 78.5688 27.2407 79.2167 27.1111C81.7894 26.2428 84.025 24.5895 85.6087 22.3839C87.1925 20.1783 88.0445 17.5316 88.045 14.8163C88.045 7.65653 82.2459 1.85742 75.0861 1.85742Z" fill="#EFEFEF"/>
<path d="M145.598 5.87557C148.572 8.8068 149.693 12.9019 148.989 16.724C149.578 17.7585 149.909 18.9655 149.909 20.2443C149.909 22.1497 149.152 23.9771 147.804 25.3245C146.457 26.6718 144.63 27.4287 142.724 27.4287C141.445 27.4287 140.239 27.0982 139.204 26.5091C135.382 27.2132 131.287 26.0924 128.356 23.1181C125.381 20.1869 124.26 16.0918 124.965 12.2697C124.375 11.2351 124.045 10.0281 124.045 8.74932C124.045 6.84391 124.802 5.01653 126.149 3.6692C127.497 2.32186 129.324 1.56494 131.229 1.56494C132.508 1.56494 133.715 1.89542 134.75 2.48454C138.572 1.78047 142.667 2.90124 145.598 5.87557ZM137.034 21.9111C141.158 21.9111 143.213 19.9282 143.213 17.2556C143.213 15.5457 142.408 13.7209 139.29 13.0168L136.431 12.3846C135.339 12.1403 134.103 11.8099 134.103 10.7897C134.103 9.75513 134.965 9.0367 136.546 9.0367C139.75 9.0367 139.448 11.2351 141.043 11.2351C141.877 11.2351 142.595 10.7466 142.595 9.89882C142.595 7.9303 139.448 6.45032 136.776 6.45032C133.888 6.45032 130.798 7.68603 130.798 10.9621C130.798 12.5427 131.359 14.2238 134.462 14.9997L138.327 15.9768C139.491 16.2642 139.779 16.9108 139.779 17.5143C139.779 18.4913 138.802 19.454 137.034 19.454C133.571 19.454 134.046 16.7958 132.192 16.7958C131.359 16.7958 130.755 17.3706 130.755 18.1896C130.755 19.7845 132.666 21.9111 137.034 21.9111Z" fill="#EFEFEF"/>
<path d="M209.852 5.50616C208.06 4.67068 206.119 4.06429 204.098 3.71393C204.08 3.71336 204.063 3.71669 204.046 3.72367C204.03 3.73066 204.016 3.74113 204.004 3.75436C203.761 4.19904 203.478 4.77849 203.29 5.22318C201.146 4.89977 198.965 4.89977 196.821 5.22318C196.633 4.76501 196.35 4.19904 196.094 3.75436C196.08 3.7274 196.04 3.71393 195.999 3.71393C193.978 4.06429 192.051 4.67068 190.245 5.50616C190.232 5.50616 190.218 5.51964 190.205 5.53311C186.54 11.0176 185.529 16.3539 186.027 21.6362C186.027 21.6632 186.041 21.6901 186.068 21.7036C188.493 23.4824 190.825 24.5604 193.129 25.2746C193.169 25.2881 193.21 25.2746 193.223 25.2476C193.762 24.5065 194.248 23.7249 194.665 22.9029C194.692 22.849 194.665 22.7951 194.611 22.7816C193.843 22.4852 193.116 22.1348 192.401 21.7306C192.347 21.7036 192.347 21.6228 192.388 21.5823C192.536 21.4745 192.684 21.3533 192.833 21.2454C192.86 21.2185 192.9 21.2185 192.927 21.232C197.562 23.3476 202.562 23.3476 207.143 21.232C207.17 21.2185 207.211 21.2185 207.238 21.2454C207.386 21.3667 207.534 21.4745 207.682 21.5958C207.736 21.6362 207.736 21.7171 207.669 21.744C206.968 22.1618 206.227 22.4987 205.459 22.7951C205.405 22.8086 205.392 22.876 205.405 22.9164C205.836 23.7384 206.321 24.52 206.847 25.2611C206.887 25.2746 206.928 25.2881 206.968 25.2746C209.286 24.5604 211.617 23.4824 214.043 21.7036C214.07 21.6901 214.083 21.6632 214.083 21.6362C214.676 15.5319 213.1 10.236 209.906 5.53311C209.892 5.51964 209.879 5.50616 209.852 5.50616ZM195.366 18.4156C193.978 18.4156 192.819 17.1354 192.819 15.5588C192.819 13.9822 193.951 12.702 195.366 12.702C196.794 12.702 197.926 13.9957 197.913 15.5588C197.913 17.1354 196.781 18.4156 195.366 18.4156ZM204.758 18.4156C203.37 18.4156 202.211 17.1354 202.211 15.5588C202.211 13.9822 203.343 12.702 204.758 12.702C206.187 12.702 207.319 13.9957 207.305 15.5588C207.305 17.1354 206.187 18.4156 204.758 18.4156Z" fill="#EFEFEF"/>
</svg>
