<svg width="215" height="29" viewBox="0 0 215 29" fill="none" xmlns="http://www.w3.org/2000/svg">
<path d="M1 3.80307C1 2.80897 1.82606 2.00333 2.84528 2.00333H24.2819C25.3011 2.00333 26.1272 2.80897 26.1272 3.80307V25.3308C26.1272 26.3249 25.3011 27.1305 24.2819 27.1305H2.84528C1.82606 27.1305 1 26.3249 1 25.3308V3.80307ZM8.76273 23.0379V11.6914H4.99208V23.0379H8.76273ZM6.87819 10.1414C8.19266 10.1414 9.01086 9.27138 9.01086 8.18148C8.98731 7.06803 8.19423 6.22156 6.90332 6.22156C5.61241 6.22156 4.76908 7.06961 4.76908 8.18148C4.76908 9.27138 5.58728 10.1414 6.85307 10.1414H6.87819ZM14.586 23.0379V16.7012C14.586 16.362 14.6111 16.0227 14.7116 15.7809C14.9833 15.104 15.6036 14.402 16.6464 14.402C18.0111 14.402 18.5561 15.4417 18.5561 16.9682V23.0379H22.3267V16.53C22.3267 13.0436 20.4673 11.4229 17.986 11.4229C15.9852 11.4229 15.0885 12.5222 14.586 13.2964V13.3357H14.5608C14.5692 13.3226 14.5776 13.3095 14.586 13.2964V11.6914H10.8169C10.864 12.7562 10.8169 23.0379 10.8169 23.0379H14.586Z" fill="#EFEFEF"/>
<path d="M75.0861 1.92773C67.9263 1.92773 62.1272 7.72684 62.1272 14.8866C62.1272 20.6209 65.8367 25.4643 70.9878 27.1814C71.6358 27.2948 71.8788 26.906 71.8788 26.5658C71.8788 26.2581 71.8626 25.2375 71.8626 24.1522C68.6066 24.7516 67.7643 23.3585 67.5051 22.6296C67.3593 22.257 66.7276 21.1069 66.1769 20.7991C65.7233 20.5561 65.0753 19.9568 66.1607 19.9406C67.1812 19.9244 67.9101 20.8801 68.1531 21.2689C69.3194 23.2289 71.1822 22.6782 71.9274 22.338C72.0407 21.4957 72.3809 20.9287 72.7535 20.6047C69.8701 20.2808 66.8572 19.1631 66.8572 14.2063C66.8572 12.797 67.3593 11.6307 68.1855 10.7236C68.0559 10.3996 67.6023 9.07132 68.3151 7.28948C68.3151 7.28948 69.4004 6.94931 71.8788 8.61776C72.9155 8.32619 74.017 8.1804 75.1185 8.1804C76.22 8.1804 77.3215 8.32619 78.3582 8.61776C80.8366 6.93311 81.9219 7.28948 81.9219 7.28948C82.6346 9.07132 82.1811 10.3996 82.0515 10.7236C82.8776 11.6307 83.3798 12.7808 83.3798 14.2063C83.3798 19.1793 80.3506 20.2808 77.4673 20.6047C77.937 21.0097 78.342 21.7872 78.342 23.0021C78.342 24.7354 78.3258 26.1285 78.3258 26.5658C78.3258 26.906 78.5688 27.311 79.2167 27.1814C81.7894 26.3131 84.025 24.6598 85.6087 22.4542C87.1925 20.2487 88.0445 17.6019 88.045 14.8866C88.045 7.72684 82.2459 1.92773 75.0861 1.92773Z" fill="#EFEFEF"/>
<path d="M145.598 5.94568C148.572 8.8769 149.693 12.972 148.989 16.7941C149.578 17.8286 149.909 19.0356 149.909 20.3144C149.909 22.2199 149.152 24.0472 147.804 25.3946C146.457 26.7419 144.63 27.4988 142.724 27.4988C141.445 27.4988 140.239 27.1683 139.204 26.5792C135.382 27.2833 131.287 26.1625 128.356 23.1882C125.381 20.257 124.26 16.1619 124.965 12.3398C124.375 11.3052 124.045 10.0982 124.045 8.81943C124.045 6.91401 124.802 5.08664 126.149 3.7393C127.497 2.39197 129.324 1.63505 131.229 1.63505C132.508 1.63505 133.715 1.96553 134.75 2.55465C138.572 1.85058 142.667 2.97134 145.598 5.94568ZM137.034 21.9812C141.158 21.9812 143.213 19.9983 143.213 17.3257C143.213 15.6159 142.408 13.791 139.29 13.087L136.431 12.4547C135.339 12.2105 134.103 11.88 134.103 10.8598C134.103 9.82524 134.965 9.1068 136.546 9.1068C139.75 9.1068 139.448 11.3052 141.043 11.3052C141.877 11.3052 142.595 10.8167 142.595 9.96893C142.595 8.00041 139.448 6.52043 136.776 6.52043C133.888 6.52043 130.798 7.75614 130.798 11.0322C130.798 12.6128 131.359 14.2939 134.462 15.0698L138.327 16.0469C139.491 16.3343 139.779 16.9809 139.779 17.5844C139.779 18.5614 138.802 19.5242 137.034 19.5242C133.571 19.5242 134.046 16.8659 132.192 16.8659C131.359 16.8659 130.755 17.4407 130.755 18.2597C130.755 19.8546 132.666 21.9812 137.034 21.9812Z" fill="#EFEFEF"/>
<path d="M209.852 5.57607C208.06 4.74059 206.119 4.1342 204.098 3.78384C204.08 3.78327 204.063 3.7866 204.046 3.79358C204.03 3.80057 204.016 3.81104 204.004 3.82426C203.761 4.26895 203.478 4.8484 203.29 5.29308C201.146 4.96967 198.965 4.96967 196.821 5.29308C196.633 4.83492 196.35 4.26895 196.094 3.82426C196.08 3.79731 196.04 3.78384 195.999 3.78384C193.978 4.1342 192.051 4.74059 190.245 5.57607C190.232 5.57607 190.218 5.58954 190.205 5.60302C186.54 11.0875 185.529 16.4238 186.027 21.7061C186.027 21.7331 186.041 21.76 186.068 21.7735C188.493 23.5523 190.825 24.6303 193.129 25.3445C193.169 25.358 193.21 25.3445 193.223 25.3176C193.762 24.5764 194.248 23.7948 194.665 22.9728C194.692 22.9189 194.665 22.865 194.611 22.8516C193.843 22.5551 193.116 22.2047 192.401 21.8005C192.347 21.7735 192.347 21.6927 192.388 21.6522C192.536 21.5444 192.684 21.4232 192.833 21.3154C192.86 21.2884 192.9 21.2884 192.927 21.3019C197.562 23.4175 202.562 23.4175 207.143 21.3019C207.17 21.2884 207.211 21.2884 207.238 21.3154C207.386 21.4366 207.534 21.5444 207.682 21.6657C207.736 21.7061 207.736 21.787 207.669 21.8139C206.968 22.2317 206.227 22.5686 205.459 22.865C205.405 22.8785 205.392 22.9459 205.405 22.9863C205.836 23.8083 206.321 24.5899 206.847 25.331C206.887 25.3445 206.928 25.358 206.968 25.3445C209.286 24.6303 211.617 23.5523 214.043 21.7735C214.07 21.76 214.083 21.7331 214.083 21.7061C214.676 15.6018 213.1 10.3059 209.906 5.60302C209.892 5.58954 209.879 5.57607 209.852 5.57607ZM195.366 18.4855C193.978 18.4855 192.819 17.2054 192.819 15.6287C192.819 14.0521 193.951 12.7719 195.366 12.7719C196.794 12.7719 197.926 14.0656 197.913 15.6287C197.913 17.2054 196.781 18.4855 195.366 18.4855ZM204.758 18.4855C203.37 18.4855 202.211 17.2054 202.211 15.6287C202.211 14.0521 203.343 12.7719 204.758 12.7719C206.187 12.7719 207.319 14.0656 207.305 15.6287C207.305 17.2054 206.187 18.4855 204.758 18.4855Z" fill="#EFEFEF"/>
</svg>
