<svg width="39" height="33" viewBox="0 0 39 33" fill="none" xmlns="http://www.w3.org/2000/svg">
<path d="M22.6649 32.2209V22.0161C22.6649 16.1733 24.0255 11.3711 26.7468 7.60929C29.5481 3.76747 33.59 1.2863 38.8725 0.165771V6.7689C36.3113 7.4092 34.3104 8.60977 32.8697 10.3706C31.429 12.0514 30.5486 14.1324 30.2284 16.6136H36.4714V32.2209H22.6649ZM0.454346 32.2209V22.0161C0.454346 16.1733 1.81499 11.3711 4.53628 7.60929C7.3376 3.76747 11.3795 1.2863 16.662 0.165771V6.7689C14.1008 7.4092 12.0999 8.60977 10.6592 10.3706C9.21849 12.0514 8.33808 14.1324 8.01793 16.6136H14.2609V32.2209H0.454346Z" fill="#1639D2"/>
</svg>
