<svg width="31" height="15" viewBox="0 0 31 15" fill="none" xmlns="http://www.w3.org/2000/svg">
<path d="M0.924805 14.5155V0.478027H4.38502L8.2581 11.4681H8.29742L12.0722 0.478027H15.4931V14.5155H13.1535V3.68266H13.1142L9.22145 14.5155H7.19644L3.3037 3.68266H3.26438V14.5155H0.924805Z" fill="white"/>
<path d="M20.8932 8.12589V12.5101H25.2381C26.7323 12.5101 27.5974 11.7041 27.5974 10.2885C27.5974 8.9123 26.7323 8.12589 25.2381 8.12589H20.8932ZM18.4357 14.5155V0.478027H25.2578C27.7743 0.478027 29.4258 1.61833 29.4258 3.9579C29.4258 5.37344 28.6984 6.39578 27.4204 6.94627V6.98559C29.1309 7.35913 30.0549 8.69604 30.0549 10.6031C30.0549 12.805 28.5214 14.5155 24.8843 14.5155H18.4357ZM20.8932 2.48338V6.35646H24.9039C26.0835 6.35646 26.9683 5.66835 26.9683 4.41009C26.9683 2.99455 26.2408 2.48338 24.9039 2.48338H20.8932Z" fill="white"/>
</svg>
