<svg width="31" height="15" viewBox="0 0 31 15" fill="none" xmlns="http://www.w3.org/2000/svg">
<path d="M0.924805 14.5857V0.548195H4.38502L8.2581 11.5383H8.29742L12.0722 0.548195H15.4931V14.5857H13.1535V3.75283H13.1142L9.22145 14.5857H7.19644L3.3037 3.75283H3.26438V14.5857H0.924805Z" fill="white"/>
<path d="M20.8932 8.19605V12.5803H25.2381C26.7323 12.5803 27.5974 11.7742 27.5974 10.3587C27.5974 8.98247 26.7323 8.19605 25.2381 8.19605H20.8932ZM18.4357 14.5857V0.548195H25.2578C27.7743 0.548195 29.4258 1.68849 29.4258 4.02807C29.4258 5.44361 28.6984 6.46595 27.4204 7.01644V7.05576C29.1309 7.4293 30.0549 8.7662 30.0549 10.6733C30.0549 12.8752 28.5214 14.5857 24.8843 14.5857H18.4357ZM20.8932 2.55355V6.42663H24.9039C26.0835 6.42663 26.9683 5.73852 26.9683 4.48026C26.9683 3.06471 26.2408 2.55355 24.9039 2.55355H20.8932Z" fill="white"/>
</svg>
