<svg width="34" height="34" viewBox="0 0 34 34" fill="none" xmlns="http://www.w3.org/2000/svg">
<path d="M18.5456 0.936093C19.0367 0.649534 19.5951 0.498535 20.1637 0.498535C20.7322 0.498535 21.2906 0.649534 21.7817 0.936093L21.7917 0.941797L31.7137 7.0402C32.2024 7.32651 32.6077 7.73565 32.8894 8.22701C33.1711 8.71837 33.3194 9.27486 33.3196 9.84125V20.5605C33.3196 21.7157 32.7035 22.7854 31.7037 23.3673L31.7008 23.3687L14.6379 33.4048L14.6322 33.4091C13.6253 33.9939 12.3816 33.9939 11.3747 33.4091L11.3376 33.3877L2.06311 26.967C1.58587 26.6789 1.19117 26.2724 0.917302 25.7869C0.643432 25.3014 0.499684 24.7533 0.500001 24.1959V13.4238C0.500001 12.8648 0.64262 12.3257 0.90504 11.855L0.909318 11.8465L0.929285 11.8094C1.21025 11.3216 1.61386 10.9152 2.09876 10.6299H2.10162L18.5456 0.936093ZM19.6253 2.78301H19.6238L3.56489 12.2515L12.4758 18.3086C12.6421 18.399 12.8288 18.4451 13.0181 18.4426C13.2074 18.4401 13.3929 18.3891 13.5568 18.2943L30.1492 8.59048L20.6949 2.78016C20.5319 2.68693 20.3473 2.63824 20.1595 2.63899C19.9718 2.63975 19.7875 2.68991 19.6253 2.78444V2.78301ZM11.9352 20.4008C11.7407 20.3331 11.553 20.2472 11.3747 20.1441L11.3419 20.1241L2.63929 14.2097V24.1973C2.63929 24.5895 2.84609 24.9504 3.17982 25.1443L3.21547 25.1643L11.9352 31.1999V20.4008ZM25.4598 13.8103L20.8247 16.5201V27.285L25.4598 24.5581V13.8103ZM14.635 20.1398L14.6322 20.1427C14.4547 20.2455 14.268 20.3314 14.0745 20.3994V31.2556L18.6854 28.5429V17.7723L14.635 20.1398ZM27.5991 12.5581V23.3002L30.6284 21.5175C30.7961 21.4203 30.9354 21.2808 31.0323 21.1128C31.1291 20.9449 31.1802 20.7544 31.1803 20.5605V10.4645L27.5991 12.5581Z" fill="#173BDD"/>
</svg>
