<svg width="36" height="27" viewBox="0 0 36 27" fill="none" xmlns="http://www.w3.org/2000/svg">
<path d="M9.29419 26.0816C6.86913 26.0816 4.79689 25.2422 3.0775 23.5633C1.3581 21.8844 0.498935 19.8324 0.500001 17.4074C0.500001 15.3287 1.12625 13.4766 2.37876 11.851C3.63126 10.2254 5.27018 9.18613 7.29551 8.73309C7.96174 6.28138 9.29419 4.29603 11.2929 2.77703C13.2915 1.25803 15.5567 0.498535 18.0884 0.498535C21.2063 0.498535 23.8515 1.58475 26.0239 3.75718C28.1964 5.92961 29.282 8.57427 29.281 11.6911C31.1198 11.9043 32.6457 12.6974 33.8588 14.0704C35.0718 15.4433 35.6778 17.0487 35.6768 18.8864C35.6768 20.8851 34.977 22.5842 33.5773 23.9838C32.1777 25.3834 30.4791 26.0827 28.4815 26.0816H9.29419ZM9.29419 22.8837H28.4815C29.6008 22.8837 30.5468 22.4973 31.3196 21.7245C32.0925 20.9517 32.4789 20.0056 32.4789 18.8864C32.4789 17.7671 32.0925 16.8211 31.3196 16.0483C30.5468 15.2754 29.6008 14.889 28.4815 14.889H26.0831V11.6911C26.0831 9.47927 25.3033 7.59358 23.7438 6.03408C22.1843 4.47457 20.2992 3.69536 18.0884 3.69642C15.8765 3.69642 13.9908 4.47617 12.4313 6.03568C10.8718 7.59518 10.0926 9.48033 10.0937 11.6911H9.29419C7.74854 11.6911 6.42942 12.2374 5.3368 13.3301C4.24419 14.4227 3.69789 15.7418 3.69789 17.2874C3.69789 18.8331 4.24419 20.1522 5.3368 21.2448C6.42942 22.3374 7.74854 22.8837 9.29419 22.8837Z" fill="#173BDD"/>
</svg>
