<svg width="29" height="34" viewBox="0 0 29 34" fill="none" xmlns="http://www.w3.org/2000/svg">
<path d="M23.2563 20.1513C23.3758 20.2706 23.4706 20.4124 23.5353 20.5684C23.5999 20.7244 23.6332 20.8916 23.6332 21.0605C23.6332 21.2294 23.5999 21.3966 23.5353 21.5526C23.4706 21.7086 23.3758 21.8504 23.2563 21.9697L19.401 25.8251C19.1598 26.0662 18.8328 26.2017 18.4917 26.2017C18.1507 26.2017 17.8236 26.0662 17.5825 25.8251C17.3414 25.584 17.2059 25.2569 17.2059 24.9159C17.2059 24.5749 17.3414 24.2478 17.5825 24.0067L20.5303 21.0605L17.5825 18.1144C17.3414 17.8732 17.2059 17.5462 17.2059 17.2051C17.2059 16.8641 17.3414 16.5371 17.5825 16.2959C17.8236 16.0548 18.1507 15.9193 18.4917 15.9193C18.8328 15.9193 19.1598 16.0548 19.401 16.2959L23.2563 20.1513ZM11.6902 16.2959C11.5709 16.1764 11.4291 16.0816 11.2731 16.017C11.1171 15.9523 10.9499 15.919 10.781 15.919C10.6121 15.919 10.4449 15.9523 10.2889 16.017C10.1328 16.0816 9.99111 16.1764 9.87176 16.2959L6.01639 20.1513C5.8969 20.2706 5.80212 20.4124 5.73744 20.5684C5.67277 20.7244 5.63948 20.8916 5.63948 21.0605C5.63948 21.2294 5.67277 21.3966 5.73744 21.5526C5.80212 21.7086 5.8969 21.8504 6.01639 21.9697L9.87176 25.8251C9.99116 25.9445 10.1329 26.0392 10.2889 26.1038C10.4449 26.1685 10.6121 26.2017 10.781 26.2017C10.9498 26.2017 11.1171 26.1685 11.2731 26.1038C11.4291 26.0392 11.5708 25.9445 11.6902 25.8251C11.8096 25.7057 11.9043 25.564 11.9689 25.4079C12.0336 25.2519 12.0668 25.0847 12.0668 24.9159C12.0668 24.747 12.0336 24.5798 11.9689 24.4238C11.9043 24.2678 11.8096 24.1261 11.6902 24.0067L8.74246 21.0605L11.6902 18.1144C11.8097 17.995 11.9045 17.8533 11.9692 17.6973C12.0338 17.5413 12.0671 17.374 12.0671 17.2051C12.0671 17.0363 12.0338 16.869 11.9692 16.713C11.9045 16.557 11.8097 16.4153 11.6902 16.2959ZM28.7727 10.7795V31.3415C28.7727 32.0232 28.5019 32.6769 28.0199 33.1589C27.5379 33.6409 26.8841 33.9117 26.2025 33.9117H3.07025C2.38857 33.9117 1.73482 33.6409 1.25281 33.1589C0.770793 32.6769 0.5 32.0232 0.5 31.3415V3.06878C0.5 2.38711 0.770793 1.73336 1.25281 1.25134C1.73482 0.769329 2.38857 0.498536 3.07025 0.498536H18.4917C18.6605 0.498403 18.8277 0.531532 18.9837 0.59603C19.1397 0.660528 19.2815 0.755131 19.401 0.874434L28.3968 9.8703C28.5161 9.98973 28.6107 10.1315 28.6752 10.2875C28.7397 10.4435 28.7728 10.6107 28.7727 10.7795ZM19.7768 9.4944H24.3856L19.7768 4.88563V9.4944ZM26.2025 31.3415V12.0646H18.4917C18.1509 12.0646 17.824 11.9292 17.583 11.6882C17.342 11.4472 17.2066 11.1204 17.2066 10.7795V3.06878H3.07025V31.3415H26.2025Z" fill="#173BDD"/>
</svg>
