<?xml version="1.0" encoding="UTF-8" standalone="no"?><svg width="36" height="36" viewBox="0 0 36 36" fill="none" xmlns="http://www.w3.org/2000/svg">
<path d="M34.0364 24.2117L25.6136 20.4375L25.5903 20.4267C25.1531 20.2397 24.6761 20.1646 24.2025 20.2084C23.7289 20.2521 23.2737 20.4131 22.8781 20.677C22.8315 20.7078 22.7867 20.7412 22.744 20.7772L18.3922 24.4871C15.6353 23.1479 12.7889 20.323 11.4498 17.6018L15.1651 13.1839C15.2008 13.1392 15.2348 13.0945 15.267 13.0462C15.5252 12.6517 15.6819 12.1993 15.723 11.7296C15.7642 11.2598 15.6886 10.7871 15.503 10.3536V10.3322L11.718 1.89506C11.4726 1.32876 11.0506 0.857024 10.515 0.550261C9.97949 0.243498 9.35909 0.118164 8.74646 0.192968C6.32379 0.511764 4.10001 1.70155 2.49045 3.5401C0.880895 5.37866 -0.00436416 7.74025 1.61781e-05 10.1838C1.61781e-05 24.3798 11.5499 35.9297 25.7459 35.9297C28.1894 35.9341 30.551 35.0488 32.3896 33.4392C34.2281 31.8297 35.4179 29.6059 35.7367 27.1832C35.8117 26.5708 35.6866 25.9506 35.3802 25.415C35.0737 24.8795 34.6024 24.4574 34.0364 24.2117ZM25.7459 33.069C19.6784 33.0624 13.8613 30.6491 9.57091 26.3588C5.28054 22.0684 2.86729 16.2513 2.86067 10.1838C2.85394 8.43789 3.48295 6.74922 4.63023 5.43316C5.7775 4.1171 7.36459 3.26364 9.0951 3.03217C9.0944 3.0393 9.0944 3.04649 9.0951 3.05362L12.8497 11.4568L9.1541 15.8801C9.11659 15.9232 9.08252 15.9693 9.05219 16.0177C8.78314 16.4306 8.6253 16.906 8.59398 17.3978C8.56266 17.8896 8.65891 18.3811 8.8734 18.8248C10.4932 22.1378 13.8313 25.4507 17.18 27.0688C17.6269 27.2813 18.1213 27.3742 18.6149 27.3385C19.1085 27.3028 19.5843 27.1396 19.996 26.865C20.0419 26.8341 20.0861 26.8006 20.1283 26.7649L24.4747 23.0567L32.8779 26.8203H32.8975C32.6689 28.5532 31.8167 30.1435 30.5004 31.2936C29.1841 32.4438 27.4939 33.0749 25.7459 33.069Z" fill="#173BDD"/>
</svg>
