<?xml version="1.0" encoding="UTF-8" standalone="no"?><svg width="27" height="27" viewBox="0 0 27 27" fill="none" xmlns="http://www.w3.org/2000/svg">
<path d="M13.0861 0.927734C5.9263 0.927734 0.127197 6.72684 0.127197 13.8866C0.127197 19.6209 3.83668 24.4643 8.98784 26.1814C9.63578 26.2948 9.87876 25.906 9.87876 25.5658C9.87876 25.2581 9.86256 24.2375 9.86256 23.1522C6.60664 23.7516 5.76431 22.3585 5.50514 21.6296C5.35935 21.257 4.7276 20.1069 4.17685 19.7991C3.72329 19.5561 3.07535 18.9568 4.16065 18.9406C5.18116 18.9244 5.9101 19.8801 6.15308 20.2689C7.31938 22.2289 9.18222 21.6782 9.92736 21.338C10.0407 20.4957 10.3809 19.9287 10.7535 19.6047C7.87013 19.2808 4.85719 18.1631 4.85719 13.2063C4.85719 11.797 5.35935 10.6307 6.18548 9.72358C6.05589 9.39961 5.60233 8.07132 6.31507 6.28948C6.31507 6.28948 7.40037 5.94931 9.87876 7.61776C10.9155 7.32619 12.017 7.1804 13.1185 7.1804C14.22 7.1804 15.3215 7.32619 16.3582 7.61776C18.8366 5.93311 19.9219 6.28948 19.9219 6.28948C20.6346 8.07132 20.1811 9.39961 20.0515 9.72358C20.8776 10.6307 21.3798 11.7808 21.3798 13.2063C21.3798 18.1793 18.3506 19.2808 15.4673 19.6047C15.937 20.0097 16.342 20.7872 16.342 22.0021C16.342 23.7354 16.3258 25.1285 16.3258 25.5658C16.3258 25.906 16.5688 26.311 17.2167 26.1814C19.7894 25.3131 22.025 23.6598 23.6087 21.4542C25.1925 19.2487 26.0445 16.6019 26.045 13.8866C26.045 6.72684 20.2459 0.927734 13.0861 0.927734Z" fill="#EFEFEF"/>
</svg>
