<?xml version="1.0" encoding="UTF-8" standalone="no"?><svg width="34" height="32" viewBox="0 0 34 32" fill="none" xmlns="http://www.w3.org/2000/svg">
<path d="M33.4632 19.1509L29.3448 18.211C29.7186 15.3196 29.0442 12.39 27.4439 9.95308L30.61 7.42896L29.0556 5.47947L25.8908 8.00234C23.8517 5.90484 21.138 4.5939 18.2274 4.3003V0.498535H15.7345V4.3003C12.8239 4.5939 10.1102 5.90484 8.07112 8.00234L4.90506 5.47947L3.35195 7.42896L6.51801 9.95308C4.91813 12.3902 4.24421 15.3198 4.61837 18.211L0.5 19.1509L1.05593 21.5815L5.16557 20.6429C6.10107 23.4243 7.98462 25.7884 10.4868 27.3215L8.82898 30.7656L11.0751 31.8463L12.7317 28.406C15.4742 29.4226 18.4902 29.4226 21.2327 28.406L22.8905 31.8463L25.1367 30.7643L23.4789 27.3215C25.981 25.7884 27.8646 23.4243 28.8001 20.6429L32.9097 21.5802L33.4632 19.1509ZM26.9528 16.7028C26.9528 17.0231 26.9341 17.3397 26.9042 17.6538L20.6718 16.2304C20.6404 15.9783 20.5832 15.7302 20.501 15.4899L25.482 11.5174C26.4425 13.0765 26.9517 14.8715 26.9528 16.7028ZM15.7345 16.7028C15.7345 16.4562 15.8076 16.2152 15.9445 16.0103C16.0815 15.8053 16.2762 15.6455 16.504 15.5512C16.7317 15.4568 16.9823 15.4321 17.2241 15.4802C17.4659 15.5283 17.688 15.6471 17.8624 15.8214C18.0367 15.9957 18.1554 16.2178 18.2035 16.4596C18.2516 16.7014 18.2269 16.952 18.1326 17.1798C18.0382 17.4075 17.8784 17.6022 17.6735 17.7392C17.4685 17.8762 17.2275 17.9493 16.981 17.9493C16.6504 17.9493 16.3333 17.8179 16.0996 17.5842C15.8658 17.3504 15.7345 17.0334 15.7345 16.7028ZM23.9313 9.56543L18.9504 13.538C18.7225 13.3973 18.4801 13.2816 18.2274 13.1927V6.81819C20.3775 7.08827 22.3804 8.05215 23.9313 9.56543ZM15.7345 6.81819V13.1939C15.4818 13.2828 15.2395 13.3986 15.0115 13.5392L10.0306 9.56668C11.5816 8.05339 13.5845 7.08827 15.7345 6.81819ZM7.00912 16.7028C7.01024 14.8715 7.5194 13.0765 8.47997 11.5174L13.4609 15.4899C13.3787 15.7302 13.3215 15.9783 13.2901 16.2304L7.05773 17.6526C7.02656 17.3369 7.01034 17.02 7.00912 16.7028ZM7.61117 20.0832L13.8137 18.6672C13.9599 18.9091 14.133 19.1336 14.3297 19.3366L11.5712 25.0667C9.74464 23.8804 8.35476 22.1308 7.61242 20.0832H7.61117ZM16.981 26.6746C15.9042 26.6729 14.8349 26.4961 13.8149 26.1511L16.5821 20.4023C16.7142 20.4227 16.8474 20.4361 16.981 20.4422C17.1141 20.436 17.2468 20.4227 17.3786 20.4023L20.147 26.1511C19.1271 26.4963 18.0577 26.6732 16.981 26.6746ZM22.3907 25.0667L19.6322 19.3353C19.8288 19.1327 20.0019 18.9086 20.1483 18.6672L26.3507 20.0832C25.6084 22.1308 24.2173 23.8804 22.3907 25.0667Z" fill="#173BDD"/>
</svg>
