<?xml version="1.0" encoding="UTF-8" standalone="no"?><svg width="26" height="26" viewBox="0 0 26 26" fill="none" xmlns="http://www.w3.org/2000/svg">
<path id="Vector" d="M0 1.80307C0 0.808975 0.826057 0.00333405 1.84528 0.00333405H23.2819C24.3011 0.00333405 25.1272 0.808975 25.1272 1.80307V23.3308C25.1272 24.3249 24.3011 25.1305 23.2819 25.1305H1.84528C0.826057 25.1305 0 24.3249 0 23.3308V1.80307ZM7.76273 21.0379V9.69144H3.99208V21.0379H7.76273ZM5.87819 8.14141C7.19266 8.14141 8.01086 7.27138 8.01086 6.18148C7.98731 5.06803 7.19423 4.22156 5.90332 4.22156C4.61241 4.22156 3.76908 5.06961 3.76908 6.18148C3.76908 7.27138 4.58728 8.14141 5.85307 8.14141H5.87819ZM13.586 21.0379V14.7012C13.586 14.362 13.6111 14.0227 13.7116 13.7809C13.9833 13.104 14.6036 12.402 15.6464 12.402C17.0111 12.402 17.5561 13.4417 17.5561 14.9682V21.0379H21.3267V14.53C21.3267 11.0436 19.4673 9.42289 16.986 9.42289C14.9852 9.42289 14.0885 10.5222 13.586 11.2964V11.3357H13.5608C13.5692 11.3226 13.5776 11.3095 13.586 11.2964V9.69144H9.81688C9.864 10.7562 9.81688 21.0379 9.81688 21.0379H13.586Z" fill="#EFEFEF"/>
</svg>
