<?xml version="1.0" encoding="UTF-8" standalone="no"?><svg width="37" height="37" viewBox="0 0 37 37" fill="none" xmlns="http://www.w3.org/2000/svg">
<rect y="0.00683594" width="36.9795" height="36.9795" rx="4.23458" fill="#183FF5"/>
<path d="M3.9248 25.5155V11.478H7.38502L11.2581 22.4681H11.2974L15.0722 11.478H18.4931V25.5155H16.1535V14.6827H16.1142L12.2215 25.5155H10.1964L6.3037 14.6827H6.26438V25.5155H3.9248Z" fill="white"/>
<path d="M23.8932 19.1259V23.5101H28.2381C29.7323 23.5101 30.5974 22.7041 30.5974 21.2885C30.5974 19.9123 29.7323 19.1259 28.2381 19.1259H23.8932ZM21.4357 25.5155V11.478H28.2578C30.7743 11.478 32.4258 12.6183 32.4258 14.9579C32.4258 16.3734 31.6984 17.3958 30.4204 17.9463V17.9856C32.1309 18.3591 33.0549 19.696 33.0549 21.6031C33.0549 23.805 31.5214 25.5155 27.8843 25.5155H21.4357ZM23.8932 13.4834V17.3565H27.9039C29.0835 17.3565 29.9683 16.6683 29.9683 15.4101C29.9683 13.9945 29.2408 13.4834 27.9039 13.4834H23.8932Z" fill="white"/>
</svg>
