<?xml version="1.0" encoding="UTF-8" standalone="no"?><svg width="96" height="97" xmlns="http://www.w3.org/2000/svg" xmlns:xlink="http://www.w3.org/1999/xlink" xml:space="preserve" overflow="hidden"><g transform="translate(-368 -433)"><g><g><g><g><path d="M394.12 491.08 436.64 448.46C440.52 444.58 456 442 456 442 456 442 453.42 457.48 449.54 461.36L406.96 504Z" stroke="#173BDD" stroke-width="4" stroke-linecap="round" stroke-linejoin="round" stroke-miterlimit="4" stroke-opacity="1" fill="none" fill-rule="nonzero"/><path d="M399.22 485.92 412.14 498.78" stroke="#173BDD" stroke-width="4" stroke-linecap="round" stroke-linejoin="round" stroke-miterlimit="4" stroke-opacity="1" fill="none" fill-rule="nonzero"/><path d="M426.32 484.58C426.32 487.16 426.32 497.48 425.04 501.36 423.813 504.241 422.056 506.867 419.86 509.1L406.96 522 409.36 501.54" stroke="#173BDD" stroke-width="4" stroke-linecap="round" stroke-linejoin="round" stroke-miterlimit="4" stroke-opacity="1" fill="none" fill-rule="nonzero"/><path d="M413.42 471.68C410.84 471.68 400.4 471.56 396.54 472.86 393.684 474.115 391.092 475.9 388.9 478.12L376 491.04 396.64 488.5" stroke="#173BDD" stroke-width="4" stroke-linecap="round" stroke-linejoin="round" stroke-miterlimit="4" stroke-opacity="1" fill="none" fill-rule="nonzero"/><path d="M399.22 504C401.8 506.58 400.72 510.24 397.94 513.02 394.38 516.58 377.28 520.82 377.28 520.82 377.28 520.82 381.46 503.62 385.04 500 387.86 497.16 391.48 496.14 394.06 498.72" stroke="#173BDD" stroke-width="4" stroke-linecap="round" stroke-linejoin="round" stroke-miterlimit="4" stroke-opacity="1" fill="none" fill-rule="nonzero"/></g></g></g></g></g></svg>