<?xml version="1.0" encoding="UTF-8" standalone="no"?><svg width="92" height="92" xmlns="http://www.w3.org/2000/svg" xmlns:xlink="http://www.w3.org/1999/xlink" xml:space="preserve" overflow="hidden"><g transform="translate(-946 -428)"><g><g><g><g><path d="M994.396 484.875C994.396 485.922 993.547 486.771 992.5 486.771 991.453 486.771 990.604 485.922 990.604 484.875 990.604 483.828 991.453 482.979 992.5 482.979 993.547 482.979 994.396 483.828 994.396 484.875Z" stroke="#173BDD" stroke-width="3.79169" stroke-linecap="butt" stroke-linejoin="miter" stroke-miterlimit="10" stroke-opacity="1" fill="none" fill-rule="nonzero"/><path d="M992.5 486.771 992.5 498.146" stroke="#173BDD" stroke-width="3.79169" stroke-linecap="round" stroke-linejoin="miter" stroke-miterlimit="10" stroke-opacity="1" fill="none" fill-rule="nonzero"/><path d="M960.271 464.021 1024.73 464.021 1024.73 517.104 960.271 517.104Z" stroke="#173BDD" stroke-width="3.79169" stroke-linecap="butt" stroke-linejoin="miter" stroke-miterlimit="10" stroke-opacity="1" fill="none" fill-rule="nonzero"/><path d="M971.646 450.75C971.646 439.233 980.983 429.896 992.5 429.896 1004.02 429.896 1013.35 439.233 1013.35 450.75L1013.35 464.021 971.646 464.021Z" stroke="#173BDD" stroke-width="3.79169" stroke-linecap="butt" stroke-linejoin="miter" stroke-miterlimit="10" stroke-opacity="1" fill="none" fill-rule="nonzero"/></g></g></g></g></g></svg>