<?xml version="1.0" encoding="UTF-8" standalone="no"?><svg width="33" height="33" viewBox="0 0 33 33" fill="none" xmlns="http://www.w3.org/2000/svg">
<path d="M21.2827 11.3895L4.84658 1.80149C4.50842 1.60431 4.12424 1.49982 3.7328 1.49855C3.34136 1.49727 2.95651 1.59926 2.61707 1.79423C2.27764 1.98919 1.99563 2.27024 1.7995 2.609C1.60338 2.94776 1.50007 3.33226 1.5 3.72371V10.407C1.49984 10.7042 1.58003 10.9959 1.7321 11.2513C1.88417 11.5067 2.10245 11.7162 2.36385 11.8577L21.2827 22.1051L30.3564 16.8133C30.6053 16.668 30.8118 16.4601 30.9552 16.2102C31.0987 15.9602 31.1742 15.6771 31.1741 15.3889V9.49366C31.174 9.10222 31.0707 8.71772 30.8746 8.37896C30.6784 8.0402 30.3964 7.75915 30.057 7.56419C29.7176 7.36922 29.3327 7.26723 28.9413 7.26851C28.5498 7.26978 28.1657 7.37427 27.8275 7.57144L21.2827 11.3895ZM21.2827 11.3895V28.9467C21.2826 29.3381 21.1793 29.7226 20.9832 30.0614C20.7871 30.4001 20.5051 30.6812 20.1656 30.8761C19.8262 31.0711 19.4414 31.1731 19.0499 31.1718C18.6585 31.1706 18.2743 31.0661 17.9361 30.8689L12.209 27.5273C11.9604 27.3822 11.7541 27.1745 11.6106 26.9249C11.4672 26.6753 11.3916 26.3924 11.3914 26.1046V6.44383" stroke="#1639D2" stroke-width="2.5" stroke-linecap="round" stroke-linejoin="round"/>
</svg>
